<?xml version="1.0" encoding="UTF-8" standalone="no"?>
<!-- Created with Inkscape (http://www.inkscape.org/) -->
<svg
   xmlns:dc="http://purl.org/dc/elements/1.1/"
   xmlns:cc="http://web.resource.org/cc/"
   xmlns:rdf="http://www.w3.org/1999/02/22-rdf-syntax-ns#"
   xmlns:svg="http://www.w3.org/2000/svg"
   xmlns="http://www.w3.org/2000/svg"
   xmlns:sodipodi="http://sodipodi.sourceforge.net/DTD/sodipodi-0.dtd"
   xmlns:inkscape="http://www.inkscape.org/namespaces/inkscape"
   version="1.0"
   width="282.19415"
   height="269.94327"
   id="svg2"
   sodipodi:version="0.32"
   inkscape:version="0.45"
   sodipodi:docname="leetsnail3.svg"
   sodipodi:docbase="/home/capi_x/Desktop"
   inkscape:output_extension="org.inkscape.output.svg.inkscape"
   sodipodi:modified="true">
  <metadata
     id="metadata14">
    <rdf:RDF>
      <cc:Work
         rdf:about="">
        <dc:format>image/svg+xml</dc:format>
        <dc:type
           rdf:resource="http://purl.org/dc/dcmitype/StillImage" />
      </cc:Work>
    </rdf:RDF>
  </metadata>
  <sodipodi:namedview
     inkscape:window-height="617"
     inkscape:window-width="872"
     inkscape:pageshadow="2"
     inkscape:pageopacity="0.0"
     guidetolerance="10.0"
     gridtolerance="10.0"
     objecttolerance="10.0"
     borderopacity="1.0"
     bordercolor="#666666"
     pagecolor="#ffffff"
     id="base"
     inkscape:zoom="3.0154484"
     inkscape:cx="109.69723"
     inkscape:cy="106.22242"
     inkscape:window-x="0"
     inkscape:window-y="25"
     inkscape:current-layer="svg2" />
  <defs
     id="defs4" />
  <path
     d="M 193.24689,168.18301 C 193.24689,168.18301 202.32386,88.881852 167.55608,57.276522 C 132.7883,25.671204 112.51275,29.261054 101.36187,13.408874 C 90.210987,-2.4432998 85.411617,-9.8040938 104.22588,29.988594 C 123.04014,69.781272 141.00044,54.359492 150.8849,77.019122 C 160.76938,99.678742 129.36566,98.544702 122.46537,85.305522 C 115.56507,72.066352 115.17482,60.026721 103.23526,48.245684 C 90.48813,35.667803 90.435001,34.341931 97.728207,48.928514 C 105.50964,64.491558 117.54847,114.98378 100.30257,106.64742 C 90.234311,101.78061 104.54583,117.21716 103.53407,125.29019 C 102.34761,134.7572 118.8633,127.16779 139.17732,126.23169 C 148.14324,125.81853 119.58178,134.66071 137.45806,134.78881 C 166.65183,134.998 193.24689,168.18301 193.24689,168.18301 z "
     style="fill:#000000;fill-opacity:1;fill-rule:evenodd;stroke:#000000;stroke-width:0.97514123px;stroke-linecap:butt;stroke-linejoin:miter;stroke-opacity:1"
     id="path3320" />
  <path
     d="M 43.700306,68.656739 C 43.700306,68.656739 85.228036,79.037636 99.352416,123.20429 C 100.83714,127.84699 77.762745,109.4202 72.259219,123.20429 C 69.192009,130.8864 62.083176,79.287817 43.700306,68.656739 z "
     style="fill:#000000;fill-opacity:1;fill-rule:evenodd;stroke:#000000;stroke-width:1.03998828px;stroke-linecap:butt;stroke-linejoin:miter;stroke-opacity:1"
     id="path3318" />
  <path
     d="M 100.91443,130.17788 C 91.458585,119.42531 68.270295,115.57923 76.053835,132.36048 C 83.837365,149.14171 57.210285,144.24019 52.745395,135.67366 C 48.280495,127.10712 46.999349,93.233607 22.731535,89.172549 C -4.3515412,84.640375 2.0608546,83.912649 15.838725,99.262729 C 29.616595,114.61281 33.558375,138.23473 32.443835,159.53555 C 31.633495,175.02274 43.208264,182.3965 50.686605,183.45216 C 81.44691,187.79435 58.901335,167.60036 106.23002,142.9559 C 153.76693,118.20301 110.37027,140.93046 100.91443,130.17788 z "
     style="fill:#000000;fill-opacity:1;fill-rule:evenodd;stroke:#000000;stroke-width:0.97514123px;stroke-linecap:butt;stroke-linejoin:miter;stroke-opacity:1"
     id="path3316" />
  <path
     d="M 122.40619,260.02652 C 96.640144,248.26172 93.591398,238.32683 93.591398,238.32683 C 75.628717,201.30662 124.13183,157.43459 112.93348,161.00743 C 100.79564,164.88002 80.032903,182.01406 75.636999,221.84568 C 75.087462,226.82508 56.08107,235.85156 56.2615,236.03199 C 56.2615,236.032 35.04815,257.7541 15.85525,257.7541 C -3.337646,257.75411 -1.330666,258.76584 4.73025,263.8166 C 10.791162,268.86736 48.17013,271.8986 57.2615,266.84784 C 66.35288,261.79707 69.400613,268.86814 83.542763,266.84784 C 84.387693,266.72713 123.19356,260.20322 122.40619,260.02652 z "
     style="fill:#000000;fill-opacity:1;fill-rule:evenodd;stroke:#000000;stroke-width:1px;stroke-linecap:butt;stroke-linejoin:miter;stroke-opacity:1"
     id="path3140" />
  <path
     d="M 225.97032,128.85959 C 210.66705,142.62177 197.49634,166.9266 193.63418,177.57951 C 176.01187,185.09733 184.67201,185.55998 186.12905,204.15632 C 186.12905,212.54377 181.63947,241.08361 151.64115,258.367 C 158.69909,257.17168 180.46487,253.39287 198.76125,244.42649 C 203.8136,241.95052 208.60139,239.07899 212.74189,235.75705 C 214.13975,234.63555 215.46383,233.46271 216.6994,232.23642 C 228.10038,215.95063 234.07385,206.83934 240.17786,168.51011 C 243.84942,157.41022 256.66261,162.39384 268.24978,151.34136 C 268.99498,130.23606 254.43538,136.5232 262.7745,125.99006 C 271.06944,115.51273 284.99374,120.68453 280.99911,113.42718 C 275.38352,103.22493 273.41411,116.94392 260.88634,120.66876 C 251.96311,123.32186 243.92111,123.00849 244.91378,120.33936 C 248.88448,109.66289 269.30799,107.90489 257.14453,99.466385 C 254.6292,97.721355 255.05084,98.871645 251.30941,106.19658 C 246.62238,115.37282 227.80175,127.21259 225.97032,128.85959 z "
     style="fill:#000000;fill-opacity:1;fill-rule:evenodd;stroke:#000000;stroke-width:0.98062599px;stroke-linecap:butt;stroke-linejoin:miter;stroke-opacity:1"
     id="path3133" />
  <path
     d="M 196.98563,179.07784 C 196.98563,179.07784 169.43765,146.16212 147.24178,142.59903 C 135.63749,140.7362 120.05084,137.15847 99.487691,150.55804 C 78.138989,164.4695 71.316079,176.97496 70.304635,203.61814 C 68.762352,243.58128 67.510667,158.45512 122.70149,152.54779 C 152.6904,149.33794 180.64348,174.14484 185.0471,193.66938 C 188.94089,210.93347 196.98563,179.07784 196.98563,179.07784 z "
     style="fill:#000000;fill-opacity:1;fill-rule:evenodd;stroke:#000000;stroke-width:1px;stroke-linecap:butt;stroke-linejoin:miter;stroke-opacity:1"
     id="path3144"
     sodipodi:nodetypes="csscssc" />
  <path
     d="M 97.497937,237.11233 C 94.78312,234.92393 82.095237,205.69156 96.50306,178.41459 C 118.57061,136.63618 166.47608,170.78721 161.83332,171.11883 C 157.19056,171.45046 147.47748,181.04256 138.61952,183.38898 C 114.84793,189.68594 133.6438,190.67895 137.95627,189.68987 C 145.38534,187.98597 162.79672,170.58041 172.77696,181.39922 C 184.52193,194.13104 168.71982,179.15635 156.85893,188.36336 C 136.92651,203.8359 137.02612,199.71041 126.01774,197.31726 C 122.20404,196.48819 121.06863,196.34441 115.71764,199.36748 C 107.28934,204.1291 101.84406,220.17477 101.80907,218.20967 C 101.31915,190.6977 121.20658,175.6007 132.65026,173.44021 C 145.77028,170.96324 116.78661,163.86106 105.45695,184.71548 C 80.107269,231.37645 109.59331,246.86237 97.497937,237.11233 z "
     style="fill:#000000;fill-opacity:1;fill-rule:evenodd;stroke:#000000;stroke-width:1px;stroke-linecap:butt;stroke-linejoin:miter;stroke-opacity:1"
     id="path3260" />
  <path
     d="M 112.08848,213.19554 C 112.08848,213.19554 101.77538,224.48738 105.52263,236.17603 C 108.71586,246.13655 119.82256,252.19452 131.78604,254.46662 C 151.48179,258.20722 163.52511,238.2803 166.49126,233.83108 C 173.05711,223.9823 146.33206,240.79016 143.04179,221.63735 C 140.6481,207.70358 164.65109,202.48302 167.42923,208.50565 C 171.02031,216.29062 149.48034,218.32258 155.23551,219.76139 C 158.98742,220.69938 179.16888,231.48661 180.09196,202.40879 C 180.29869,195.89665 177.87085,172.71952 163.20833,190.68405 C 159.66945,195.01989 146.32472,205.69171 136.47593,205.22272 C 133.82593,205.09653 127.56514,208.97464 128.9721,216.00948 C 130.37907,223.04432 146.7937,243.21087 136.94493,244.14885 C 127.09615,245.08683 112.08848,234.30007 115.37141,229.61017 C 118.65434,224.92028 124.35831,230.04451 126.62716,231.95512 C 135.53796,239.45895 115.23673,212.105 124.28221,207.09868 C 135.63152,200.81728 116.77838,205.22273 112.08848,213.19554 z "
     style="fill:#000000;fill-opacity:1;fill-rule:evenodd;stroke:#000000;stroke-width:1px;stroke-linecap:butt;stroke-linejoin:miter;stroke-opacity:1"
     id="path3266" />
  <path
     d="M 75.55853,185.4419 C 83.10504,185.14133 40.755813,198.2619 25.497213,183.76575 C 10.238613,169.26958 14.841763,173.97505 24.302233,192.55771 C 36.610636,216.7344 47.656103,211.50109 56.348873,211.55233 C 65.041643,211.60357 69.838619,214.39753 69.838619,214.39753 C 69.838619,214.39753 68.01202,185.74247 75.55853,185.4419 z "
     style="fill:#000000;fill-opacity:1;fill-rule:evenodd;stroke:#000000;stroke-width:0.97514123px;stroke-linecap:butt;stroke-linejoin:miter;stroke-opacity:1"
     id="path3308" />
</svg>
